<svg width="328" height="59" viewBox="0 0 328 59" fill="none" xmlns="http://www.w3.org/2000/svg">
<rect width="328" height="59" fill="#F5F5F5"/>
<path d="M31.1768 37.472C30.1101 37.472 29.0221 37.1307 27.9128 36.448C26.8461 35.808 25.7581 34.7627 24.6488 33.312C23.2834 31.4347 22.1314 29.6427 21.1928 27.936C20.2541 26.2293 19.4861 24.736 18.8888 23.456C18.3341 22.176 17.9074 21.2587 17.6088 20.704C17.6088 20.704 17.7154 20.576 17.9288 20.32C18.1421 20.0213 18.3981 19.744 18.6968 19.488C19.0381 19.1893 19.3154 19.04 19.5288 19.04C21.5341 19.04 23.3261 19.0187 24.9048 18.976C26.5261 18.8907 27.9554 18.6347 29.1928 18.208C30.4728 17.7387 31.6034 16.9493 32.5848 15.84C33.5661 14.7307 34.3981 13.152 35.0808 11.104C35.2941 10.592 35.4221 10.08 35.4648 9.568C35.5501 9.01333 35.5928 8.48 35.5928 7.968C35.5928 6.51733 35.2301 5.23733 34.5048 4.128C33.7794 3.01866 32.7341 2.37866 31.3688 2.208C31.1981 2.16533 31.0061 2.144 30.7928 2.144C30.5794 2.144 30.3661 2.144 30.1528 2.144C29.3421 2.144 28.4461 2.25066 27.4648 2.464C26.5261 2.67733 25.8221 3.08266 25.3528 3.68C24.2861 5.088 23.2621 6.688 22.2808 8.48C21.2994 10.2293 20.3608 12.0213 19.4648 13.856C18.5688 15.648 17.7154 17.3333 16.9048 18.912C16.6914 19.3387 16.2861 20.1067 15.6888 21.216C15.0914 22.2827 14.4301 23.52 13.7048 24.928C12.9794 26.2933 12.2968 27.6587 11.6568 29.024C11.0168 30.3893 10.5048 31.6053 10.1208 32.672C9.77942 33.7387 9.69408 34.464 9.86475 34.848C9.90742 34.8907 9.92875 34.9547 9.92875 35.04C9.92875 35.168 9.86475 35.232 9.73675 35.232C9.39542 35.232 9.05408 35.1467 8.71275 34.976C8.37142 34.8053 7.96608 34.72 7.49675 34.72C7.07008 34.72 6.64342 34.8267 6.21675 35.04C5.79008 35.2107 5.23542 35.5307 4.55275 36C3.87008 36.4693 3.10208 36.8533 2.24875 37.152C2.16342 37.1947 2.03542 37.216 1.86475 37.216C1.56608 37.216 1.33142 37.1307 1.16075 36.96C0.990083 36.832 0.990083 36.7253 1.16075 36.64C2.09942 36.4693 2.91008 36.128 3.59275 35.616C4.27542 35.0613 4.83008 34.3787 5.25675 33.568C6.15275 32.0747 7.02742 30.5813 7.88075 29.088C8.77675 27.552 9.63008 26.016 10.4408 24.48C11.4221 22.6027 12.4248 20.7253 13.4488 18.848C14.4728 16.928 15.4968 15.0293 16.5208 13.152C17.5021 11.4027 18.3768 9.71733 19.1448 8.096C19.9128 6.47466 20.4888 5.30133 20.8728 4.576C21.1714 4.02133 21.6834 3.53067 22.4088 3.104C23.1768 2.63467 23.9234 2.272 24.6488 2.016C24.3928 2.016 24.1368 2.016 23.8808 2.016C23.6248 1.97333 23.3474 1.952 23.0488 1.952C21.7261 1.952 20.2754 2.03733 18.6968 2.208C17.1608 2.336 15.6461 2.54933 14.1528 2.848C12.7021 3.14666 11.4221 3.552 10.3128 4.064C9.20342 4.576 8.45675 5.19467 8.07275 5.92C7.90208 6.304 7.75275 6.688 7.62475 7.072C7.49675 7.456 7.43275 7.84 7.43275 8.224C7.43275 9.20533 7.77408 9.90933 8.45675 10.336C8.49942 10.336 8.52075 10.3787 8.52075 10.464C8.52075 10.5493 8.43542 10.6347 8.26475 10.72C8.13675 10.8053 8.03008 10.8267 7.94475 10.784C7.51808 10.5707 7.02742 10.0587 6.47275 9.248C5.96075 8.39467 5.61942 7.69066 5.44875 7.136C5.32075 6.624 5.25675 6.15466 5.25675 5.728C5.25675 4.61867 5.61942 3.76533 6.34475 3.168C7.07008 2.528 7.98742 2.08 9.09675 1.824C10.2061 1.52533 11.3368 1.35467 12.4888 1.312C13.6834 1.22666 14.7288 1.184 15.6248 1.184C16.9901 1.184 18.6114 1.184 20.4888 1.184C22.3661 1.14133 24.0941 1.12 25.6728 1.12C26.0568 1.12 26.4834 1.12 26.9528 1.12C27.4221 1.07733 27.9128 1.056 28.4248 1.056C29.5768 1.056 30.7714 1.12 32.0088 1.248C33.2461 1.376 34.3768 1.65333 35.4008 2.08C36.4248 2.50666 37.2141 3.168 37.7688 4.064C38.4941 5.25867 38.8568 6.624 38.8568 8.16C38.8568 10.5067 38.2381 12.4693 37.0008 14.048C36.5741 14.6027 36.1048 15.136 35.5928 15.648C35.0808 16.16 34.4834 16.6507 33.8008 17.12C32.6914 17.888 31.3688 18.5493 29.8328 19.104C28.2968 19.616 26.6968 20 25.0328 20.256C23.4114 20.512 21.9181 20.6827 20.5528 20.768C21.1074 21.9627 21.9394 23.5627 23.0488 25.568C24.2008 27.5733 25.5874 29.5787 27.2088 31.584C28.0621 32.6507 28.9368 33.3973 29.8328 33.824C30.7288 34.2507 31.6034 34.464 32.4568 34.464C33.8221 34.464 35.1021 34.0587 36.2968 33.248C37.5341 32.4373 38.6434 31.4987 39.6248 30.432C40.6488 29.3227 41.4594 28.3627 42.0568 27.552C42.1848 27.3387 42.2914 27.232 42.3768 27.232C42.5048 27.232 42.5688 27.36 42.5688 27.616C42.5688 27.9573 42.4408 28.2987 42.1848 28.64C40.2221 31.328 38.3448 33.4827 36.5528 35.104C34.7608 36.6827 32.9688 37.472 31.1768 37.472ZM45.2928 36.512C43.5434 36.512 42.3274 36.1707 41.6448 35.488C40.9621 34.8053 40.6208 33.9733 40.6208 32.992C40.6208 31.7547 40.9408 30.432 41.5807 29.024C42.2634 27.616 42.9034 26.4213 43.5008 25.44C44.1834 24.416 45.1008 23.3493 46.2528 22.24C47.4048 21.1307 48.6634 20.192 50.0288 19.424C51.3941 18.656 52.7168 18.272 53.9968 18.272C55.1061 18.272 55.8741 18.5493 56.3008 19.104C56.7274 19.616 56.9408 20.2347 56.9408 20.96C56.9408 22.2827 56.5354 23.3707 55.7248 24.224C54.9568 25.0773 53.9968 25.7813 52.8448 26.336C51.6928 26.848 50.5834 27.2747 49.5168 27.616C48.8768 27.7867 48.1301 27.9573 47.2768 28.128C46.4234 28.2987 45.6128 28.384 44.8448 28.384C44.5461 29.152 44.3114 29.8987 44.1408 30.624C43.9701 31.3493 43.8848 32.0107 43.8848 32.608C43.8848 33.3333 44.0554 33.9307 44.3968 34.4C44.7808 34.8693 45.3994 35.104 46.2528 35.104C46.5941 35.104 46.9994 35.0613 47.4688 34.976C47.9381 34.8907 48.4501 34.7627 49.0048 34.592C50.2848 34.1653 51.5434 33.4827 52.7808 32.544C54.0181 31.6053 55.1488 30.6027 56.1728 29.536C57.2394 28.4267 58.0501 27.5093 58.6048 26.784C58.7328 26.912 58.7968 27.0613 58.7968 27.232C58.7968 27.4453 58.6474 27.7867 58.3488 28.256C57.4954 29.4507 56.3861 30.688 55.0208 31.968C53.6554 33.248 52.1408 34.336 50.4768 35.232C48.8128 36.0853 47.0848 36.512 45.2928 36.512ZM45.3568 27.104C45.9114 27.1467 46.5301 27.1467 47.2128 27.104C47.9381 27.0187 48.6421 26.8693 49.3248 26.656C51.0741 26.144 52.3328 25.3333 53.1008 24.224C53.9114 23.072 54.3168 22.048 54.3168 21.152C54.3168 20.64 54.2101 20.2133 53.9968 19.872C53.7834 19.5307 53.4421 19.36 52.9728 19.36C51.7354 19.36 50.6261 19.8293 49.6448 20.768C48.6634 21.664 47.8101 22.7093 47.0848 23.904C46.3594 25.0987 45.7834 26.1653 45.3568 27.104ZM46.1262 58.4C44.5049 58.4 42.9476 58.016 41.4542 57.248C39.9182 56.5227 38.7876 55.392 38.0622 53.856C37.7636 53.3013 37.5716 52.704 37.4862 52.064C37.4009 51.4667 37.3582 50.8693 37.3582 50.272V49.632C37.3582 49.2907 37.4009 48.9707 37.4862 48.672C37.5716 48.3733 37.8062 48.224 38.1902 48.224C38.2756 48.224 38.3182 48.2667 38.3182 48.352C38.3182 48.608 38.2969 48.864 38.2542 49.12C38.2116 49.376 38.1902 49.6533 38.1902 49.952C38.1902 51.9147 38.8302 53.408 40.1102 54.432C41.3476 55.456 42.9049 55.968 44.7822 55.968C45.5502 55.968 46.3396 55.8827 47.1502 55.712C47.9609 55.5413 48.7076 55.3067 49.3902 55.008C52.1209 53.856 54.4889 52.192 56.4943 50.016C58.5423 47.84 60.3129 45.3867 61.8063 42.656C63.3423 39.9253 64.6863 37.1307 65.8383 34.272C67.0329 31.3707 68.1423 28.64 69.1663 26.08C68.2703 27.5307 67.2889 28.832 66.2223 29.984C65.1556 31.0933 63.9609 32.2027 62.6383 33.312C61.8276 33.9947 60.9316 34.6347 59.9503 35.232C59.0116 35.8293 57.9876 36.128 56.8783 36.128C56.4516 36.128 56.1529 36 55.9823 35.744C55.8116 35.4453 55.7263 35.104 55.7263 34.72V34.272C55.9396 32.608 56.4729 30.88 57.3263 29.088C58.2223 27.296 59.2889 25.6107 60.5263 24.032C61.7636 22.4533 63.0223 21.1733 64.3023 20.192C65.7529 19.0827 67.3529 18.528 69.1023 18.528H76.4623C76.6756 18.528 76.7823 18.6133 76.7823 18.784C76.7823 19.1253 76.5903 19.296 76.2063 19.296C75.7369 19.296 75.2889 19.488 74.8623 19.872C74.4356 20.256 74.1156 20.6187 73.9023 20.96C73.4756 21.6427 72.9209 22.688 72.2383 24.096C71.5556 25.504 70.8089 27.1253 69.9983 28.96C69.1876 30.752 68.3769 32.5867 67.5663 34.464C66.7556 36.2987 66.0089 38.0267 65.3263 39.648C64.3023 42.08 63.1289 44.448 61.8063 46.752C60.5263 49.0987 58.9903 51.1893 57.1983 53.024C55.4489 54.9013 53.3582 56.3733 50.9262 57.44C49.4756 58.08 47.8756 58.4 46.1262 58.4ZM59.5023 33.952C60.0143 33.952 60.7183 33.5893 61.6143 32.864C62.5103 32.096 63.4916 31.1573 64.5583 30.048C65.6249 28.896 66.6276 27.7013 67.5663 26.464C68.5049 25.184 69.2729 24.032 69.8703 23.008C70.5103 21.9413 70.8303 21.1307 70.8303 20.576C70.8303 20.1067 70.6809 19.7867 70.3823 19.616C70.1263 19.4453 69.7849 19.36 69.3583 19.36C68.6756 19.36 67.9503 19.616 67.1823 20.128C66.4143 20.5973 65.7956 21.0667 65.3263 21.536C64.8143 22.0053 64.1956 22.752 63.4703 23.776C62.7876 24.7573 62.0836 25.8453 61.3583 27.04C60.6756 28.2347 60.0996 29.3867 59.6302 30.496C59.1609 31.6053 58.9263 32.5013 58.9263 33.184C58.9263 33.696 59.1183 33.952 59.5023 33.952ZM87.8318 11.552C87.2344 11.552 86.8078 11.36 86.5518 10.976C86.3811 10.7627 86.2958 10.4853 86.2958 10.144C86.2958 9.46133 86.6158 8.90667 87.2558 8.48C87.7251 8.224 88.1518 8.096 88.5358 8.096C89.1758 8.096 89.6238 8.288 89.8798 8.672C90.0504 8.88533 90.1358 9.16267 90.1358 9.504C90.1358 10.1867 89.7944 10.7413 89.1118 11.168C88.7278 11.424 88.3011 11.552 87.8318 11.552ZM76.6958 36.192C76.2691 36.192 75.9064 36.1067 75.6078 35.936C75.3518 35.7653 75.2238 35.4453 75.2238 34.976C75.2238 34.3787 75.3731 33.6747 75.6718 32.864C76.0131 32.0533 76.3758 31.2427 76.7598 30.432C77.1864 29.6213 77.5064 28.96 77.7198 28.448C78.0184 27.8507 78.3811 27.0827 78.8078 26.144C79.2771 25.1627 79.7038 24.2453 80.0878 23.392C80.5144 22.496 80.8131 21.8773 80.9838 21.536C80.3864 22.176 79.6611 22.9867 78.8078 23.968C77.9971 24.9067 77.2291 25.824 76.5038 26.72C75.7784 27.616 75.2238 28.32 74.8398 28.832C74.7118 29.0027 74.6051 29.088 74.5198 29.088C74.4344 29.088 74.3918 28.9813 74.3918 28.768C74.3918 28.4267 74.4984 28.1067 74.7118 27.808C75.5224 26.784 76.4184 25.632 77.3998 24.352C78.4238 23.072 79.3411 21.8987 80.1518 20.832C80.9624 19.7227 81.4744 18.9973 81.6878 18.656C82.1571 18.5707 82.8398 18.4427 83.7358 18.272C84.6744 18.1013 85.3144 17.8667 85.6558 17.568C85.7838 17.44 85.9118 17.376 86.0398 17.376C86.1251 17.376 86.1678 17.4613 86.1678 17.632C86.2104 17.76 86.1678 17.9093 86.0398 18.08C85.7838 18.3787 85.3358 19.104 84.6958 20.256C84.0558 21.408 83.3731 22.688 82.6478 24.096C81.9651 25.4613 81.3251 26.6987 80.7278 27.808C80.1304 28.96 79.6184 30.0693 79.1918 31.136C78.7651 32.2027 78.5518 32.9707 78.5518 33.44C78.5518 34.0373 78.8504 34.336 79.4478 34.336C80.0024 34.336 80.7064 33.9947 81.5598 33.312C82.4558 32.6293 83.3518 31.8187 84.2478 30.88C85.1438 29.8987 85.9331 29.0027 86.6158 28.192C86.8291 27.936 87.0851 27.6373 87.3838 27.296C87.7251 26.912 87.9384 26.6773 88.0238 26.592C88.1091 26.6773 88.1518 26.8267 88.1518 27.04C88.1091 27.3387 88.0024 27.6373 87.8318 27.936C87.6611 28.192 87.4904 28.4267 87.3198 28.64C86.4238 29.7493 85.4424 30.9013 84.3758 32.096C83.3091 33.248 82.1358 34.2293 80.8558 35.04C79.5758 35.808 78.1891 36.192 76.6958 36.192ZM90.6723 37.024C89.9043 37.024 89.0936 36.9173 88.2403 36.704C87.3869 36.4907 86.6189 36.1493 85.9363 35.68C85.2963 35.168 84.8696 34.4853 84.6562 33.632C84.6136 33.504 84.5922 33.312 84.5922 33.056C84.5922 32.4587 84.7203 31.7973 84.9763 31.072C85.2749 30.3467 85.6376 29.8347 86.0643 29.536C86.2349 29.4507 86.3629 29.4507 86.4483 29.536C86.5763 29.6213 86.5976 29.7067 86.5123 29.792C86.4696 29.92 86.4056 30.0907 86.3203 30.304C86.2349 30.4747 86.1709 30.6667 86.1283 30.88C86.0003 31.9893 86.2349 32.9707 86.8323 33.824C87.0883 34.1653 87.3869 34.4853 87.7283 34.784C88.1123 35.0827 88.4749 35.3387 88.8163 35.552C89.1149 35.7227 89.4776 35.8507 89.9043 35.936C90.3309 35.9787 90.7576 36 91.1843 36C91.8669 36 92.5283 35.9147 93.1683 35.744C93.8083 35.5733 94.2776 35.296 94.5763 34.912C95.1309 34.2293 95.4083 33.4613 95.4083 32.608C95.4083 31.968 95.2376 31.2853 94.8963 30.56C94.5549 29.8347 94.0216 29.0667 93.2963 28.256C92.8269 27.744 92.3789 27.1893 91.9523 26.592C91.5256 25.9947 91.2483 25.3547 91.1203 24.672C91.0776 24.544 91.0349 24.416 90.9923 24.288C90.9923 24.16 90.9923 24.032 90.9923 23.904C90.4376 24.7147 89.8616 25.4827 89.2643 26.208C88.7096 26.8907 88.2189 27.488 87.7923 28C87.6216 28.256 87.4723 28.384 87.3443 28.384C87.2589 28.384 87.2163 28.2987 87.2163 28.128C87.2163 27.744 87.3869 27.3387 87.7283 26.912C88.0696 26.528 88.4536 26.0587 88.8802 25.504C89.3069 24.9067 89.6483 24.4373 89.9043 24.096C90.6296 23.0293 91.1629 22.1973 91.5043 21.6C91.8883 20.96 92.2936 20.384 92.7203 19.872C93.1896 19.3173 93.7656 18.8693 94.4483 18.528C95.1736 18.1867 95.9203 18.016 96.6883 18.016C97.5843 18.016 98.3949 18.1653 99.1203 18.464C99.8883 18.72 100.294 19.4027 100.336 20.512C100.336 21.024 100.23 21.5573 100.016 22.112C99.8456 22.624 99.6536 23.1147 99.4403 23.584C99.3123 23.84 99.1203 24.032 98.8643 24.16C98.6509 24.2453 98.5443 24.2027 98.5443 24.032C98.5443 23.8613 98.5656 23.6693 98.6083 23.456C98.6509 23.2427 98.6723 23.0507 98.6723 22.88C98.6723 22.1547 98.5443 21.5147 98.2883 20.96C98.0749 20.3627 97.7549 19.936 97.3283 19.68C96.9016 19.3813 96.4536 19.232 95.9843 19.232C95.3016 19.232 94.6403 19.5093 94.0003 20.064C93.3603 20.576 93.0403 21.2587 93.0403 22.112C93.0403 22.1973 93.0403 22.304 93.0403 22.432C93.0403 22.56 93.0616 22.6667 93.1042 22.752C93.2749 23.4347 93.7869 24.2027 94.6403 25.056C95.4936 25.9093 96.1549 26.656 96.6243 27.296C97.4349 28.4053 97.8403 29.536 97.8403 30.688C97.8403 31.84 97.4989 32.9067 96.8163 33.888C96.1763 34.8267 95.3016 35.5733 94.1923 36.128C93.1256 36.7253 91.9523 37.024 90.6723 37.024ZM104.267 36.192C103.841 36.192 103.478 36.1067 103.179 35.936C102.881 35.7653 102.731 35.4453 102.731 34.976C102.731 34.3787 102.881 33.6747 103.179 32.864C103.521 32.0533 103.883 31.2427 104.267 30.432C104.651 29.6213 104.971 28.96 105.227 28.448C105.441 28.064 105.718 27.4667 106.059 26.656C106.443 25.8027 106.827 24.928 107.211 24.032C107.638 23.0933 107.979 22.304 108.235 21.664C108.534 21.024 108.683 20.704 108.683 20.704C108.299 21.1307 107.787 21.728 107.147 22.496C106.55 23.264 105.889 24.0747 105.163 24.928C104.481 25.7387 103.841 26.5067 103.243 27.232C102.689 27.9573 102.283 28.4907 102.027 28.832C101.899 29.0027 101.793 29.088 101.707 29.088C101.622 29.088 101.579 28.9813 101.579 28.768C101.579 28.4267 101.686 28.1067 101.899 27.808C102.411 27.168 103.03 26.4 103.755 25.504C104.481 24.5653 105.206 23.6267 105.931 22.688C106.699 21.7493 107.361 20.9173 107.915 20.192C107.574 20.192 107.126 20.2133 106.571 20.256C106.059 20.2987 105.59 20.3627 105.163 20.448C104.737 20.4907 104.502 20.512 104.459 20.512C104.246 20.512 104.267 20.3413 104.523 20C104.779 19.6587 105.121 19.3173 105.547 18.976C105.974 18.6347 106.294 18.464 106.507 18.464C106.55 18.464 106.891 18.4853 107.531 18.528C108.171 18.528 108.641 18.528 108.939 18.528C109.793 17.376 110.625 16.0533 111.435 14.56C112.289 13.0667 113.121 11.424 113.931 9.632C114.273 9.58933 114.849 9.35467 115.659 8.928C116.513 8.45867 117.174 7.98933 117.643 7.52C117.857 7.30667 118.027 7.2 118.155 7.2C118.411 7.2 118.411 7.37067 118.155 7.712C117.857 8.05333 117.345 8.77867 116.619 9.888C115.894 10.9547 115.083 12.256 114.187 13.792C113.291 15.2853 112.438 16.864 111.627 18.528H116.811C117.281 18.528 117.515 18.592 117.515 18.72C117.515 18.8907 117.195 19.0613 116.555 19.232C115.83 19.4453 115.062 19.5733 114.251 19.616C113.483 19.6587 112.758 19.744 112.075 19.872C111.435 20 110.966 20.2773 110.667 20.704C110.411 21.0027 110.049 21.6427 109.579 22.624C109.11 23.6053 108.598 24.736 108.043 26.016C107.531 27.2533 107.083 28.512 106.699 29.792C106.315 31.0293 106.081 32.0747 105.995 32.928V33.184C105.995 33.5253 106.102 33.8027 106.315 34.016C106.529 34.2293 106.742 34.336 106.955 34.336C107.51 34.336 108.214 33.9947 109.067 33.312C109.963 32.6293 110.881 31.8187 111.819 30.88C112.758 29.8987 113.569 29.0027 114.251 28.192C114.55 27.8507 114.806 27.5307 115.019 27.232C115.275 26.9333 115.425 26.7413 115.467 26.656C115.553 26.8267 115.595 26.9547 115.595 27.04C115.595 27.296 115.51 27.5733 115.339 27.872C115.211 28.1707 115.062 28.4267 114.891 28.64C114.081 29.7067 113.099 30.8373 111.947 32.032C110.795 33.184 109.558 34.1653 108.235 34.976C106.955 35.7867 105.633 36.192 104.267 36.192ZM114.779 36.896C114.608 36.896 114.608 36.7253 114.779 36.384C114.992 36 115.184 35.5733 115.355 35.104C115.568 34.6347 115.781 34.1227 115.995 33.568C116.421 32.544 116.891 31.392 117.403 30.112C117.915 28.832 118.405 27.5947 118.875 26.4C119.344 25.1627 119.749 24.1173 120.091 23.264C120.475 22.368 120.731 21.792 120.859 21.536C120.261 22.176 119.536 22.9867 118.683 23.968C117.872 24.9067 117.104 25.824 116.379 26.72C115.653 27.616 115.099 28.32 114.715 28.832C114.587 29.0027 114.48 29.088 114.395 29.088C114.309 29.088 114.267 28.9813 114.267 28.768C114.267 28.4267 114.373 28.1067 114.587 27.808C115.397 26.784 116.293 25.632 117.275 24.352C118.299 23.072 119.216 21.8987 120.027 20.832C120.837 19.7227 121.349 18.9973 121.563 18.656C122.032 18.5707 122.715 18.4427 123.611 18.272C124.549 18.1013 125.189 17.8667 125.531 17.568C125.659 17.44 125.787 17.376 125.915 17.376C126 17.376 126.043 17.4613 126.043 17.632C126.085 17.76 126.043 17.9093 125.915 18.08C125.659 18.336 125.275 18.8907 124.763 19.744C124.293 20.5973 123.76 21.5787 123.163 22.688C122.565 23.7973 121.989 24.864 121.435 25.888C121.861 25.248 122.416 24.5013 123.099 23.648C123.824 22.752 124.613 21.8987 125.467 21.088C126.32 20.2347 127.173 19.5307 128.027 18.976C128.923 18.4213 129.755 18.144 130.523 18.144C131.077 18.144 131.547 18.272 131.931 18.528C132.315 18.7413 132.613 19.1467 132.827 19.744C132.955 20.0427 133.019 20.384 133.019 20.768C133.019 21.4933 132.827 22.1973 132.443 22.88C132.101 23.52 131.845 24.0107 131.675 24.352C131.632 24.48 131.483 24.608 131.227 24.736C130.971 24.8213 130.864 24.7787 130.907 24.608C130.949 24.3947 130.971 24.1813 130.971 23.968C131.013 23.7547 131.035 23.52 131.035 23.264C131.035 22.5387 130.885 21.8773 130.587 21.28C130.331 20.6827 129.84 20.384 129.115 20.384C128.432 20.384 127.6 20.8107 126.619 21.664C125.637 22.5173 124.656 23.4987 123.675 24.608C122.437 26.0587 121.456 27.4453 120.731 28.768C120.005 30.048 119.408 31.3067 118.939 32.544C118.683 33.2267 118.427 33.9093 118.171 34.592C117.915 35.232 117.723 35.744 117.595 36.128C117.04 36.1707 116.485 36.2987 115.931 36.512C115.376 36.768 114.992 36.896 114.779 36.896ZM140.536 36.192C140.11 36.192 139.747 36.1067 139.448 35.936C139.15 35.7653 139 35.4453 139 34.976C139 34.3787 139.15 33.696 139.448 32.928C139.747 32.16 140.088 31.4133 140.472 30.688C140.856 29.92 141.198 29.3013 141.496 28.832C140.003 30.4107 138.446 31.904 136.824 33.312C136.014 33.9947 135.118 34.6347 134.136 35.232C133.155 35.8293 132.11 36.128 131 36.128C130.574 36.128 130.275 36 130.104 35.744C129.934 35.4453 129.848 35.104 129.848 34.72C129.848 34.5067 129.87 34.3573 129.912 34.272C130.126 32.608 130.659 30.88 131.512 29.088C132.366 27.296 133.411 25.6107 134.648 24.032C135.886 22.4533 137.144 21.1733 138.424 20.192C139.875 19.0827 141.475 18.528 143.224 18.528H150.584C150.798 18.528 150.904 18.6133 150.904 18.784C150.904 19.1253 150.712 19.296 150.328 19.296C149.902 19.296 149.475 19.5733 149.048 20.128C148.622 20.64 148.302 21.0667 148.088 21.408C147.79 21.8773 147.32 22.6667 146.68 23.776C146.04 24.8853 145.379 26.1013 144.696 27.424C144.056 28.704 143.502 29.8987 143.032 31.008C142.563 32.1173 142.328 32.928 142.328 33.44C142.328 34.0373 142.627 34.336 143.224 34.336C143.864 34.336 144.59 34.0373 145.4 33.44C146.211 32.8427 147.022 32.1173 147.832 31.264C148.686 30.368 149.454 29.4933 150.136 28.64C150.862 27.744 151.438 27.04 151.864 26.528C152.12 26.784 152.099 27.1467 151.8 27.616C151.544 28.0427 151.31 28.384 151.096 28.64C150.243 29.7493 149.262 30.9013 148.152 32.096C147.043 33.248 145.827 34.2293 144.504 35.04C143.224 35.808 141.902 36.192 140.536 36.192ZM133.624 33.952C134.136 33.952 134.84 33.5893 135.736 32.864C136.675 32.096 137.678 31.1573 138.744 30.048C139.811 28.896 140.814 27.7013 141.752 26.464C142.691 25.184 143.459 24.032 144.056 23.008C144.696 21.9413 145.016 21.1307 145.016 20.576C145.016 20.1067 144.867 19.7867 144.568 19.616C144.312 19.4453 143.971 19.36 143.544 19.36C142.862 19.36 142.115 19.616 141.304 20.128C140.536 20.5973 139.918 21.0667 139.448 21.536C138.936 22.0053 138.318 22.752 137.592 23.776C136.91 24.7573 136.227 25.8453 135.544 27.04C134.862 28.2347 134.286 29.3867 133.816 30.496C133.347 31.6053 133.112 32.5013 133.112 33.184C133.112 33.696 133.283 33.952 133.624 33.952ZM153.205 36.192C152.778 36.192 152.415 36.1067 152.117 35.936C151.818 35.7653 151.669 35.4453 151.669 34.976C151.669 34.3787 151.818 33.6747 152.117 32.864C152.458 32.0533 152.821 31.2427 153.205 30.432C153.589 29.6213 153.909 28.96 154.165 28.448C154.378 28.064 154.655 27.4667 154.997 26.656C155.381 25.8027 155.765 24.928 156.149 24.032C156.575 23.0933 156.917 22.304 157.173 21.664C157.471 21.024 157.621 20.704 157.621 20.704C157.237 21.1307 156.725 21.728 156.085 22.496C155.487 23.264 154.826 24.0747 154.101 24.928C153.418 25.7387 152.778 26.5067 152.181 27.232C151.626 27.9573 151.221 28.4907 150.965 28.832C150.837 29.0027 150.73 29.088 150.645 29.088C150.559 29.088 150.517 28.9813 150.517 28.768C150.517 28.4267 150.623 28.1067 150.837 27.808C151.349 27.168 151.967 26.4 152.693 25.504C153.418 24.5653 154.143 23.6267 154.869 22.688C155.637 21.7493 156.298 20.9173 156.853 20.192C156.511 20.192 156.063 20.2133 155.509 20.256C154.997 20.2987 154.527 20.3627 154.101 20.448C153.674 20.4907 153.439 20.512 153.397 20.512C153.183 20.512 153.205 20.3413 153.461 20C153.717 19.6587 154.058 19.3173 154.485 18.976C154.911 18.6347 155.231 18.464 155.445 18.464C155.487 18.464 155.829 18.4853 156.469 18.528C157.109 18.528 157.578 18.528 157.877 18.528C158.73 17.376 159.562 16.0533 160.373 14.56C161.226 13.0667 162.058 11.424 162.869 9.632C163.21 9.58933 163.786 9.35467 164.597 8.928C165.45 8.45867 166.111 7.98933 166.581 7.52C166.794 7.30667 166.965 7.2 167.093 7.2C167.349 7.2 167.349 7.37067 167.093 7.712C166.794 8.05333 166.282 8.77867 165.557 9.888C164.831 10.9547 164.021 12.256 163.125 13.792C162.229 15.2853 161.375 16.864 160.565 18.528H165.749C166.218 18.528 166.453 18.592 166.453 18.72C166.453 18.8907 166.133 19.0613 165.493 19.232C164.767 19.4453 163.999 19.5733 163.189 19.616C162.421 19.6587 161.695 19.744 161.013 19.872C160.373 20 159.903 20.2773 159.605 20.704C159.349 21.0027 158.986 21.6427 158.517 22.624C158.047 23.6053 157.535 24.736 156.981 26.016C156.469 27.2533 156.021 28.512 155.637 29.792C155.253 31.0293 155.018 32.0747 154.933 32.928V33.184C154.933 33.5253 155.039 33.8027 155.253 34.016C155.466 34.2293 155.679 34.336 155.893 34.336C156.447 34.336 157.151 33.9947 158.005 33.312C158.901 32.6293 159.818 31.8187 160.757 30.88C161.695 29.8987 162.506 29.0027 163.189 28.192C163.487 27.8507 163.743 27.5307 163.957 27.232C164.213 26.9333 164.362 26.7413 164.405 26.656C164.49 26.8267 164.533 26.9547 164.533 27.04C164.533 27.296 164.447 27.5733 164.277 27.872C164.149 28.1707 163.999 28.4267 163.829 28.64C163.018 29.7067 162.037 30.8373 160.885 32.032C159.733 33.184 158.495 34.1653 157.173 34.976C155.893 35.7867 154.57 36.192 153.205 36.192ZM176.644 11.552C176.047 11.552 175.62 11.36 175.364 10.976C175.194 10.7627 175.108 10.4853 175.108 10.144C175.108 9.46133 175.428 8.90667 176.068 8.48C176.538 8.224 176.964 8.096 177.348 8.096C177.988 8.096 178.436 8.288 178.692 8.672C178.863 8.88533 178.948 9.16267 178.948 9.504C178.948 10.1867 178.607 10.7413 177.924 11.168C177.54 11.424 177.114 11.552 176.644 11.552ZM165.508 36.192C165.082 36.192 164.719 36.1067 164.42 35.936C164.164 35.7653 164.036 35.4453 164.036 34.976C164.036 34.3787 164.186 33.6747 164.484 32.864C164.826 32.0533 165.188 31.2427 165.572 30.432C165.999 29.6213 166.319 28.96 166.532 28.448C166.831 27.8507 167.194 27.0827 167.62 26.144C168.09 25.1627 168.516 24.2453 168.9 23.392C169.327 22.496 169.626 21.8773 169.796 21.536C169.199 22.176 168.474 22.9867 167.62 23.968C166.81 24.9067 166.042 25.824 165.316 26.72C164.591 27.616 164.036 28.32 163.652 28.832C163.524 29.0027 163.418 29.088 163.332 29.088C163.247 29.088 163.204 28.9813 163.204 28.768C163.204 28.4267 163.311 28.1067 163.524 27.808C164.335 26.784 165.231 25.632 166.212 24.352C167.236 23.072 168.154 21.8987 168.964 20.832C169.775 19.7227 170.287 18.9973 170.5 18.656C170.97 18.5707 171.652 18.4427 172.548 18.272C173.487 18.1013 174.127 17.8667 174.468 17.568C174.596 17.44 174.724 17.376 174.852 17.376C174.938 17.376 174.98 17.4613 174.98 17.632C175.023 17.76 174.98 17.9093 174.852 18.08C174.596 18.3787 174.148 19.104 173.508 20.256C172.868 21.408 172.186 22.688 171.46 24.096C170.778 25.4613 170.138 26.6987 169.54 27.808C168.943 28.96 168.431 30.0693 168.004 31.136C167.578 32.2027 167.364 32.9707 167.364 33.44C167.364 34.0373 167.663 34.336 168.26 34.336C168.815 34.336 169.519 33.9947 170.372 33.312C171.268 32.6293 172.164 31.8187 173.06 30.88C173.956 29.8987 174.746 29.0027 175.428 28.192C175.642 27.936 175.898 27.6373 176.196 27.296C176.538 26.912 176.751 26.6773 176.836 26.592C176.922 26.6773 176.964 26.8267 176.964 27.04C176.922 27.3387 176.815 27.6373 176.644 27.936C176.474 28.192 176.303 28.4267 176.132 28.64C175.236 29.7493 174.255 30.9013 173.188 32.096C172.122 33.248 170.948 34.2293 169.668 35.04C168.388 35.808 167.002 36.192 165.508 36.192ZM176.669 36.128C175.986 36.128 175.367 36 174.813 35.744C174.301 35.4453 174.045 34.8267 174.045 33.888C174.045 32.3947 174.429 30.9013 175.197 29.408C175.965 27.872 176.754 26.528 177.565 25.376C178.29 24.3947 179.101 23.4773 179.997 22.624C180.935 21.728 181.938 20.96 183.005 20.32C183.687 19.8933 184.605 19.4453 185.757 18.976C186.951 18.464 187.954 18.208 188.765 18.208C189.447 18.208 190.045 18.4 190.557 18.784C191.069 19.1253 191.325 19.7653 191.325 20.704C191.325 22.1547 190.941 23.648 190.173 25.184C189.447 26.6773 188.679 28 187.869 29.152C187.485 29.664 187.101 30.1547 186.717 30.624C186.333 31.0507 185.906 31.4987 185.437 31.968C187.015 31.968 188.466 31.52 189.789 30.624C191.111 29.6853 192.263 28.5547 193.245 27.232L193.373 27.104C193.501 27.104 193.565 27.232 193.565 27.488C193.565 27.7867 193.479 28.064 193.309 28.32C192.455 29.5147 191.389 30.5813 190.109 31.52C188.829 32.416 187.378 32.864 185.757 32.864C185.586 32.864 185.415 32.864 185.245 32.864C185.074 32.864 184.903 32.8427 184.733 32.8C182.343 35.0187 179.655 36.128 176.669 36.128ZM178.333 35.04C178.93 35.04 179.57 34.8267 180.253 34.4C180.978 33.9733 181.533 33.568 181.917 33.184C182.642 32.4587 183.303 31.6907 183.901 30.88C184.498 30.0267 185.053 29.1733 185.565 28.32C186.162 27.296 186.759 26.08 187.357 24.672C187.954 23.264 188.253 21.9413 188.253 20.704C188.253 19.7227 187.911 19.232 187.229 19.232C186.674 19.232 185.991 19.4667 185.181 19.936C184.413 20.4053 183.837 20.832 183.453 21.216C182.002 22.7093 180.786 24.3307 179.805 26.08C179.25 27.0613 178.653 28.2133 178.013 29.536C177.373 30.8587 177.053 32.0747 177.053 33.184C177.053 33.3547 177.053 33.5253 177.053 33.696C177.095 33.824 177.138 33.9733 177.181 34.144C177.351 34.7413 177.735 35.04 178.333 35.04ZM192.966 36.96C192.796 36.96 192.796 36.768 192.966 36.384C193.18 36 193.372 35.5733 193.542 35.104C193.756 34.6347 193.969 34.1227 194.182 33.568C194.609 32.544 195.078 31.392 195.59 30.112C196.102 28.832 196.593 27.5947 197.062 26.4C197.532 25.1627 197.937 24.1173 198.278 23.264C198.662 22.368 198.918 21.792 199.046 21.536C198.449 22.176 197.724 22.9867 196.87 23.968C196.06 24.9067 195.292 25.824 194.566 26.72C193.841 27.616 193.286 28.32 192.902 28.832C192.774 29.0027 192.668 29.088 192.582 29.088C192.497 29.088 192.454 28.9813 192.454 28.768C192.454 28.4267 192.561 28.1067 192.774 27.808C193.585 26.784 194.481 25.632 195.462 24.352C196.486 23.072 197.404 21.8987 198.214 20.832C199.025 19.7227 199.537 18.9973 199.75 18.656C200.22 18.5707 200.902 18.4427 201.798 18.272C202.737 18.1013 203.377 17.8667 203.718 17.568C203.846 17.44 203.974 17.376 204.102 17.376C204.188 17.376 204.23 17.4613 204.23 17.632C204.273 17.76 204.23 17.9093 204.102 18.08C203.846 18.3787 203.398 19.0827 202.758 20.192C202.161 21.2587 201.5 22.4533 200.774 23.776C200.092 25.0987 199.452 26.2933 198.854 27.36C199.366 26.6773 199.921 26.016 200.518 25.376C201.116 24.736 201.692 24.1173 202.246 23.52C202.758 23.008 203.462 22.368 204.358 21.6C205.254 20.832 206.193 20.128 207.174 19.488C208.156 18.848 209.009 18.4853 209.734 18.4C209.905 18.3573 210.054 18.336 210.182 18.336C210.353 18.336 210.481 18.336 210.566 18.336C211.505 18.336 211.974 18.6773 211.974 19.36C211.974 19.872 211.697 20.5547 211.142 21.408C210.844 21.8773 210.374 22.6667 209.734 23.776C209.137 24.8427 208.518 26.016 207.878 27.296C207.281 28.5333 206.748 29.7067 206.278 30.816C205.852 31.8827 205.638 32.672 205.638 33.184C205.638 33.7813 205.937 34.08 206.534 34.08C207.26 34.08 208.049 33.7173 208.902 32.992C209.798 32.2667 210.758 31.3493 211.782 30.24C212.806 29.088 213.83 27.872 214.854 26.592C214.94 26.6773 214.982 26.8267 214.982 27.04C214.982 27.3387 214.876 27.6373 214.662 27.936C214.492 28.192 214.321 28.4267 214.15 28.64C213.724 29.1947 213.148 29.8987 212.422 30.752C211.74 31.5627 211.036 32.3733 210.31 33.184C209.585 33.952 208.924 34.5707 208.326 35.04C207.9 35.3387 207.345 35.6587 206.662 36C205.98 36.3413 205.297 36.512 204.614 36.512C203.846 36.512 203.313 36.32 203.014 35.936C202.716 35.5093 202.566 34.9973 202.566 34.4C202.566 33.7173 202.694 32.992 202.95 32.224C203.206 31.456 203.484 30.7307 203.782 30.048C204.124 29.3227 204.38 28.7893 204.55 28.448C205.318 26.9547 206.022 25.5467 206.662 24.224C207.302 22.9013 207.75 21.9627 208.006 21.408C208.134 21.152 208.198 20.9387 208.198 20.768C208.198 20.4693 207.964 20.448 207.494 20.704C207.025 20.96 206.449 21.344 205.766 21.856C205.126 22.368 204.529 22.88 203.974 23.392C203.42 23.8613 203.057 24.1813 202.886 24.352C201.308 26.016 199.921 27.872 198.726 29.92C197.574 31.9253 196.593 33.9947 195.782 36.128C195.228 36.1707 194.673 36.32 194.118 36.576C193.564 36.832 193.18 36.96 192.966 36.96ZM231.368 38.432C230.045 38.432 228.786 38.048 227.592 37.28C226.397 36.5547 225.501 35.424 224.904 33.888C224.69 33.3333 224.541 32.736 224.456 32.096C224.413 31.456 224.392 30.8373 224.392 30.24V29.408C224.392 29.1093 224.413 28.832 224.456 28.576C224.541 28.32 224.712 28.192 224.968 28.192C225.053 28.192 225.096 28.2347 225.096 28.32C225.096 28.576 225.074 28.832 225.032 29.088C225.032 29.344 225.032 29.6 225.032 29.856C225.032 31.8613 225.522 33.3973 226.504 34.464C227.528 35.488 228.786 36 230.28 36C231.773 36 233.224 35.5733 234.632 34.72C236.04 33.824 237.341 32.7147 238.536 31.392C239.218 30.6667 239.986 29.5787 240.84 28.128C241.736 26.6347 242.653 24.9707 243.592 23.136C244.573 21.2587 245.554 19.3387 246.536 17.376C247.517 15.3707 248.456 13.4507 249.352 11.616C250.248 9.73867 251.058 8.096 251.784 6.688C252.466 5.36533 253.384 4.32 254.536 3.552C255.688 2.784 256.669 2.25067 257.48 1.952C257.181 1.952 256.541 1.97333 255.56 2.016C254.621 2.05866 253.618 2.10133 252.552 2.144C251.485 2.18667 250.632 2.22933 249.992 2.272C248.37 2.35733 246.728 2.54933 245.064 2.848C243.4 3.14666 241.928 3.552 240.648 4.064C239.368 4.576 238.45 5.23733 237.896 6.048C237.512 6.60267 237.32 7.24267 237.32 7.968C237.32 9.41867 237.96 10.464 239.24 11.104C239.325 11.1893 239.368 11.232 239.368 11.232C239.368 11.36 239.261 11.488 239.048 11.616C238.834 11.7013 238.621 11.7227 238.408 11.68C238.066 11.4667 237.64 11.1253 237.128 10.656C236.658 10.144 236.21 9.61067 235.784 9.056C235.4 8.50133 235.144 8.032 235.016 7.648C234.802 7.008 234.696 6.496 234.696 6.112C234.696 5.088 235.08 4.256 235.848 3.616C236.616 2.93333 237.618 2.42133 238.856 2.08C240.093 1.696 241.416 1.44 242.824 1.312C244.232 1.14133 245.597 1.03467 246.92 0.991997C248.242 0.949331 249.373 0.927998 250.312 0.927998C252.488 0.927998 254.429 0.927998 256.136 0.927998C257.885 0.885331 259.485 0.863998 260.936 0.863998C262.429 0.863998 263.858 0.885331 265.224 0.927998C266.632 0.970664 268.104 1.03466 269.64 1.12C270.749 1.16267 271.496 1.376 271.88 1.76C272.306 2.144 272.52 2.61333 272.52 3.168C272.52 3.89333 272.285 4.68267 271.816 5.536C271.346 6.38933 270.92 7.17867 270.536 7.904C270.365 8.24533 270.088 8.50133 269.704 8.672C269.32 8.8 269.17 8.672 269.256 8.288C269.341 7.904 269.426 7.49866 269.512 7.072C269.597 6.60266 269.64 6.15466 269.64 5.728C269.64 4.96 269.49 4.27733 269.192 3.68C268.893 3.04 268.381 2.592 267.656 2.336C267.229 2.16533 266.717 2.05866 266.12 2.016C265.522 1.93066 264.882 1.888 264.2 1.888C262.92 1.888 261.64 2.016 260.36 2.272C259.08 2.528 258.077 2.93333 257.352 3.488C256.456 4.17067 255.538 5.28 254.6 6.816C253.704 8.352 252.85 9.99467 252.04 11.744C251.229 13.4933 250.504 15.0293 249.864 16.352C249.821 16.4373 249.8 16.5653 249.8 16.736C249.8 16.9493 249.992 17.056 250.376 17.056C250.973 17.056 251.805 17.056 252.872 17.056C253.981 17.056 255.133 17.0773 256.328 17.12C257.522 17.12 258.546 17.12 259.4 17.12C260.338 17.12 261.085 17.184 261.64 17.312C262.194 17.3973 262.472 17.6747 262.472 18.144C262.472 18.3147 262.365 18.656 262.152 19.168C261.853 19.8507 261.512 20.448 261.128 20.96C260.786 21.4293 260.509 21.92 260.296 22.432C260.253 22.6027 260.061 22.752 259.72 22.88C259.378 23.008 259.25 22.9867 259.336 22.816C259.506 22.432 259.677 21.9627 259.848 21.408C260.061 20.8107 260.168 20.2987 260.168 19.872C260.168 19.1893 259.869 18.848 259.272 18.848H249.288C248.904 18.848 248.605 19.0187 248.392 19.36C247.154 21.8347 245.81 24.48 244.36 27.296C242.952 30.112 241.309 32.5227 239.432 34.528C238.365 35.68 237.128 36.6187 235.72 37.344C234.312 38.0693 232.861 38.432 231.368 38.432ZM262.154 36.896C261.983 36.896 261.983 36.7253 262.154 36.384C262.367 36 262.559 35.5733 262.73 35.104C262.943 34.6347 263.156 34.1227 263.37 33.568C263.796 32.544 264.266 31.392 264.778 30.112C265.29 28.832 265.78 27.5947 266.25 26.4C266.719 25.1627 267.124 24.1173 267.466 23.264C267.85 22.368 268.106 21.792 268.234 21.536C267.636 22.176 266.911 22.9867 266.058 23.968C265.247 24.9067 264.479 25.824 263.754 26.72C263.028 27.616 262.474 28.32 262.09 28.832C261.962 29.0027 261.855 29.088 261.77 29.088C261.684 29.088 261.642 28.9813 261.642 28.768C261.642 28.4267 261.748 28.1067 261.962 27.808C262.772 26.784 263.668 25.632 264.65 24.352C265.674 23.072 266.591 21.8987 267.402 20.832C268.212 19.7227 268.724 18.9973 268.938 18.656C269.407 18.5707 270.09 18.4427 270.986 18.272C271.924 18.1013 272.564 17.8667 272.906 17.568C273.034 17.44 273.162 17.376 273.29 17.376C273.375 17.376 273.418 17.4613 273.418 17.632C273.46 17.76 273.418 17.9093 273.29 18.08C273.034 18.336 272.65 18.8907 272.138 19.744C271.668 20.5973 271.135 21.5787 270.538 22.688C269.94 23.7973 269.364 24.864 268.81 25.888C269.236 25.248 269.791 24.5013 270.474 23.648C271.199 22.752 271.988 21.8987 272.842 21.088C273.695 20.2347 274.548 19.5307 275.402 18.976C276.298 18.4213 277.13 18.144 277.898 18.144C278.452 18.144 278.922 18.272 279.306 18.528C279.69 18.7413 279.988 19.1467 280.202 19.744C280.33 20.0427 280.394 20.384 280.394 20.768C280.394 21.4933 280.202 22.1973 279.818 22.88C279.476 23.52 279.22 24.0107 279.05 24.352C279.007 24.48 278.858 24.608 278.602 24.736C278.346 24.8213 278.239 24.7787 278.282 24.608C278.324 24.3947 278.346 24.1813 278.346 23.968C278.388 23.7547 278.41 23.52 278.41 23.264C278.41 22.5387 278.26 21.8773 277.962 21.28C277.706 20.6827 277.215 20.384 276.49 20.384C275.807 20.384 274.975 20.8107 273.994 21.664C273.012 22.5173 272.031 23.4987 271.05 24.608C269.812 26.0587 268.831 27.4453 268.106 28.768C267.38 30.048 266.783 31.3067 266.314 32.544C266.058 33.2267 265.802 33.9093 265.546 34.592C265.29 35.232 265.098 35.744 264.97 36.128C264.415 36.1707 263.86 36.2987 263.306 36.512C262.751 36.768 262.367 36.896 262.154 36.896ZM280.231 36.128C279.549 36.128 278.93 36 278.375 35.744C277.863 35.4453 277.607 34.8267 277.607 33.888C277.607 32.3947 277.991 30.9013 278.759 29.408C279.527 27.872 280.317 26.528 281.127 25.376C281.853 24.3947 282.663 23.4773 283.559 22.624C284.498 21.728 285.501 20.96 286.567 20.32C287.25 19.8933 288.167 19.4453 289.319 18.976C290.514 18.464 291.517 18.208 292.327 18.208C293.01 18.208 293.607 18.4 294.119 18.784C294.631 19.1253 294.887 19.7653 294.887 20.704C294.887 22.1547 294.503 23.648 293.735 25.184C293.01 26.6773 292.242 28 291.431 29.152C291.047 29.664 290.663 30.1547 290.279 30.624C289.895 31.0507 289.469 31.4987 288.999 31.968C290.578 31.968 292.029 31.52 293.351 30.624C294.674 29.6853 295.826 28.5547 296.807 27.232L296.935 27.104C297.063 27.104 297.127 27.232 297.127 27.488C297.127 27.7867 297.042 28.064 296.871 28.32C296.018 29.5147 294.951 30.5813 293.671 31.52C292.391 32.416 290.941 32.864 289.319 32.864C289.149 32.864 288.978 32.864 288.807 32.864C288.637 32.864 288.466 32.8427 288.295 32.8C285.906 35.0187 283.218 36.128 280.231 36.128ZM281.895 35.04C282.493 35.04 283.133 34.8267 283.815 34.4C284.541 33.9733 285.095 33.568 285.479 33.184C286.205 32.4587 286.866 31.6907 287.463 30.88C288.061 30.0267 288.615 29.1733 289.127 28.32C289.725 27.296 290.322 26.08 290.919 24.672C291.517 23.264 291.815 21.9413 291.815 20.704C291.815 19.7227 291.474 19.232 290.791 19.232C290.237 19.232 289.554 19.4667 288.743 19.936C287.975 20.4053 287.399 20.832 287.015 21.216C285.565 22.7093 284.349 24.3307 283.367 26.08C282.813 27.0613 282.215 28.2133 281.575 29.536C280.935 30.8587 280.615 32.0747 280.615 33.184C280.615 33.3547 280.615 33.5253 280.615 33.696C280.658 33.824 280.701 33.9733 280.743 34.144C280.914 34.7413 281.298 35.04 281.895 35.04ZM296.529 36.96C296.358 36.96 296.358 36.768 296.529 36.384C296.742 36 296.934 35.5733 297.105 35.104C297.318 34.6347 297.531 34.1227 297.745 33.568C298.171 32.544 298.641 31.392 299.153 30.112C299.665 28.832 300.155 27.5947 300.625 26.4C301.094 25.1627 301.499 24.1173 301.841 23.264C302.225 22.368 302.481 21.792 302.609 21.536C302.011 22.176 301.286 22.9867 300.433 23.968C299.622 24.9067 298.854 25.824 298.129 26.72C297.403 27.616 296.849 28.32 296.465 28.832C296.337 29.0027 296.23 29.088 296.145 29.088C296.059 29.088 296.017 28.9813 296.017 28.768C296.017 28.4267 296.123 28.1067 296.337 27.808C297.147 26.784 298.043 25.632 299.025 24.352C300.049 23.072 300.966 21.8987 301.777 20.832C302.587 19.7227 303.099 18.9973 303.313 18.656C303.782 18.5707 304.465 18.4427 305.361 18.272C306.299 18.1013 306.939 17.8667 307.281 17.568C307.409 17.44 307.537 17.376 307.665 17.376C307.75 17.376 307.793 17.4613 307.793 17.632C307.835 17.76 307.793 17.9093 307.665 18.08C307.409 18.3787 306.961 19.0827 306.321 20.192C305.723 21.2587 305.062 22.4533 304.337 23.776C303.654 25.0987 303.014 26.2933 302.417 27.36C303.099 26.5493 303.761 25.7813 304.401 25.056C305.083 24.3307 305.553 23.8187 305.809 23.52C306.321 23.008 307.025 22.368 307.921 21.6C308.817 20.832 309.755 20.128 310.737 19.488C311.718 18.848 312.571 18.4853 313.297 18.4C313.467 18.3573 313.617 18.336 313.745 18.336C313.873 18.336 314.001 18.336 314.129 18.336C314.939 18.336 315.345 18.6347 315.345 19.232C315.345 19.488 315.281 19.7867 315.153 20.128C315.025 20.4693 314.854 20.8107 314.641 21.152C314.385 21.664 313.958 22.4747 313.361 23.584C312.763 24.6507 312.23 25.632 311.761 26.528L314.769 23.52C315.281 23.008 315.985 22.368 316.881 21.6C317.777 20.832 318.715 20.128 319.697 19.488C320.678 18.848 321.531 18.4853 322.257 18.4C322.427 18.3573 322.577 18.336 322.705 18.336C322.875 18.336 323.003 18.336 323.089 18.336C324.027 18.336 324.497 18.6773 324.497 19.36C324.497 19.872 324.219 20.5547 323.665 21.408C323.366 21.8773 322.897 22.6667 322.257 23.776C321.617 24.8853 320.955 26.1013 320.273 27.424C319.633 28.704 319.078 29.8987 318.609 31.008C318.139 32.1173 317.905 32.928 317.905 33.44C317.905 34.0373 318.203 34.336 318.801 34.336C319.355 34.336 320.059 34.016 320.913 33.376C321.809 32.6933 322.705 31.8827 323.601 30.944C324.539 30.0053 325.35 29.1093 326.033 28.256C326.331 27.9147 326.609 27.5733 326.865 27.232C327.163 26.848 327.334 26.6347 327.377 26.592C327.462 26.6773 327.505 26.8267 327.505 27.04C327.505 27.3387 327.398 27.6373 327.185 27.936C327.014 28.192 326.843 28.4267 326.673 28.64C325.862 29.7067 324.923 30.816 323.857 31.968C322.833 33.12 321.702 34.1013 320.465 34.912C319.227 35.68 317.905 36.128 316.497 36.256C316.07 36.2987 315.643 36.2133 315.217 36C314.79 35.7867 314.577 35.4453 314.577 34.976C314.577 34.3787 314.726 33.6747 315.025 32.864C315.366 32.0533 315.729 31.2427 316.113 30.432C316.539 29.6213 316.859 28.96 317.073 28.448C317.841 26.9547 318.545 25.5467 319.185 24.224C319.825 22.9013 320.273 21.9627 320.529 21.408C320.657 21.152 320.721 20.9387 320.721 20.768C320.721 20.4693 320.486 20.448 320.017 20.704C319.547 20.96 318.971 21.344 318.289 21.856C317.649 22.368 317.051 22.88 316.497 23.392C315.942 23.8613 315.579 24.1813 315.409 24.352C314.683 25.0773 313.809 26.0587 312.785 27.296C311.803 28.5333 310.886 29.8347 310.033 31.2C309.179 32.5227 308.582 33.76 308.241 34.912C307.814 35.296 307.409 35.488 307.025 35.488C306.726 35.488 306.47 35.3813 306.257 35.168C306.086 34.9547 306.001 34.6987 306.001 34.4C306.001 33.5467 306.257 32.544 306.769 31.392C307.323 30.1973 307.771 29.216 308.113 28.448C308.881 26.9547 309.585 25.5467 310.225 24.224C310.865 22.9013 311.313 21.9627 311.569 21.408C311.697 21.152 311.761 20.9387 311.761 20.768C311.761 20.4693 311.526 20.448 311.057 20.704C310.587 20.96 310.011 21.344 309.329 21.856C308.689 22.368 308.091 22.88 307.537 23.392C306.982 23.8613 306.619 24.1813 306.449 24.352C305.425 25.4187 304.465 26.5067 303.569 27.616C302.715 28.7253 301.99 29.92 301.393 31.2C301.051 31.968 300.689 32.8213 300.305 33.76C299.921 34.6987 299.601 35.488 299.345 36.128C298.79 36.1707 298.235 36.32 297.681 36.576C297.126 36.832 296.742 36.96 296.529 36.96Z" fill="black"/>
</svg>
